<?xml version="1.0" encoding="UTF-8" standalone="no"?>
<!-- Created with Inkscape (http://www.inkscape.org/) -->

<svg
   xmlns:dc="http://purl.org/dc/elements/1.1/"
   xmlns:cc="http://creativecommons.org/ns#"
   xmlns:rdf="http://www.w3.org/1999/02/22-rdf-syntax-ns#"
   xmlns:svg="http://www.w3.org/2000/svg"
   xmlns="http://www.w3.org/2000/svg"
   xmlns:sodipodi="http://sodipodi.sourceforge.net/DTD/sodipodi-0.dtd"
   xmlns:inkscape="http://www.inkscape.org/namespaces/inkscape"
   width="210mm"
   height="297mm"
   viewBox="0 0 210 297"
   version="1.1"
   id="svg8"
   inkscape:version="0.92.2 5c3e80d, 2017-08-06"
   sodipodi:docname="platform.svg">
  <defs
     id="defs2" />
  <sodipodi:namedview
     id="base"
     pagecolor="#ffffff"
     bordercolor="#666666"
     borderopacity="1.0"
     inkscape:pageopacity="0.0"
     inkscape:pageshadow="2"
     inkscape:zoom="1.4"
     inkscape:cx="342.11603"
     inkscape:cy="687.68986"
     inkscape:document-units="mm"
     inkscape:current-layer="layer1"
     showgrid="false"
     inkscape:snap-global="false"
     inkscape:window-width="1920"
     inkscape:window-height="966"
     inkscape:window-x="0"
     inkscape:window-y="1"
     inkscape:window-maximized="1" />
  <metadata
     id="metadata5">
    <rdf:RDF>
      <cc:Work
         rdf:about="">
        <dc:format>image/svg+xml</dc:format>
        <dc:type
           rdf:resource="http://purl.org/dc/dcmitype/StillImage" />
        <dc:title></dc:title>
      </cc:Work>
    </rdf:RDF>
  </metadata>
  <g
     inkscape:label="Layer 1"
     inkscape:groupmode="layer"
     id="layer1">
    <g
       id="g847"
       inkscape:export-xdpi="26.219999"
       inkscape:export-ydpi="26.219999">
      <path
         sodipodi:nodetypes="sccccccccccccsccccss"
         inkscape:connector-curvature="0"
         id="rect815"
         transform="scale(0.26458333)"
         d="m 202.85742,371.0918 c -7.91428,0 -16.63053,3.59166 -14.28515,14.28515 0.0366,0.16689 0.076,0.31522 0.11328,0.47852 7.7975,59.77802 13.45703,33.16406 13.45703,33.16406 3.27684,-7.36547 1.43112,-24.12173 10,-21.78515 9.40788,4.89388 -0.7827,39.20615 6.89004,41.74702 4.57441,-1.65845 3.04747,-56.47122 10.36541,-43.03509 20.58919,14.09956 9.65063,59.77646 18.9217,63.17475 6.44925,-3.37463 5.0174,-92.84719 41.62754,-54.60153 9.46273,0.91537 9.76054,59.94325 13.48242,62.96094 5.53345,4.48649 17.33593,-50.58985 17.33593,-50.58985 26.67099,-22.7919 23.60801,97.81653 31.73438,89.98633 24.77891,-37.60679 -7.24452,-88.89988 43.21094,-88.82812 10.26735,-0.36737 9.94525,-15.73334 11.90429,-22.60547 1.14452,-4.01488 23.47217,72.24365 31.34375,57.625 2.83002,-1.05557 0.81635,-47.01737 18.71875,-37.30274 13.84078,-9.54762 46.74296,-15.42285 39.68946,-28.90039 -0.0353,-0.49072 -0.10771,-0.98647 -0.22461,-1.48828 -2.02031,-8.67191 -6.3709,-14.28515 -14.28516,-14.28515 z"
         style="fill:#ffffff;fill-opacity:0.97969546;stroke:#000000;stroke-width:1.00157475;stroke-miterlimit:4;stroke-dasharray:none;stroke-opacity:1" />
      <path
         sodipodi:nodetypes="ccccccccc"
         inkscape:connector-curvature="0"
         id="path826"
         d="m 52.585278,109.71088 0.200454,-2.27179 -0.701583,-4.91108 c 0.49872,0.26909 0.991656,1.56488 1.570207,1.03566 l 1.904297,-0.73499 c -1.113569,1.54071 -1.82038,4.40569 -1.971114,6.81537 l -0.801809,1.46999 -0.467721,-2.53906 z"
         style="fill:#aaeeff;stroke:none;stroke-width:0.26458332px;stroke-linecap:butt;stroke-linejoin:miter;stroke-opacity:1" />
      <path
         sodipodi:nodetypes="ccccccccc"
         inkscape:connector-curvature="0"
         id="path828"
         d="m 56.895,101.59256 1.102487,6.71515 -10e-7,5.27858 h 0.334087 l 0.467722,-4.27632 0.400904,-3.8754 c 0.378632,-1.06908 0.935442,-2.13816 1.670434,-3.20724 l -1.436573,0.86862 c -0.830078,0.51912 -1.958912,-1.27274 -2.53906,-1.50339 z"
         style="fill:#aaeeff;stroke:none;stroke-width:0.26458332px;stroke-linecap:butt;stroke-linejoin:miter;stroke-opacity:1" />
      <path
         style="fill:#aaeeff;stroke:none;stroke-width:0.26458332px;stroke-linecap:butt;stroke-linejoin:miter;stroke-opacity:1"
         d="m 65.380807,117.36147 0.133636,-2.53906 -0.200452,-1.57021 c 0.133962,-1.04394 0.175477,-2.70498 0.19733,-4.17713 0.0027,-0.18447 0.30494,-0.37964 0.369045,-0.60077 0.05665,-0.1954 -0.12388,-0.41837 -0.122039,-0.56654 0.04003,-3.22128 -0.168188,-5.66479 0.858602,-5.9477 0.0586,0.0981 1.080419,1.50101 1.434497,1.48641 0.284066,-0.0117 0.804662,0.1135 1.869281,-0.19613 0.726155,-0.2112 2.497119,-1.0085 1.761693,-0.42369 -1.930225,1.53492 -3.652153,6.71554 -4.497522,9.28965 l -0.434313,3.27405 -0.400906,2.3386 c -0.627214,2.63178 -0.310523,4.76474 -0.868626,0.63477 z"
         id="path830"
         inkscape:connector-curvature="0"
         sodipodi:nodetypes="cccssscsssccccc" />
      <path
         style="fill:#aaeeff;stroke:none;stroke-width:0.39646319px;stroke-linecap:butt;stroke-linejoin:miter;stroke-opacity:1"
         d="m 78.744284,102.39111 c 0.503151,2.3264 1.376934,4.14692 2.196573,7.89287 0.09305,0.42528 0.399771,0.93797 0.338596,1.55443 -0.06747,0.67989 -0.216689,1.3769 -0.254184,2.1868 0.252384,2.39352 -1.987309,11.99587 0.508975,7.77962 l 1.915284,-7.2045 1.223117,-4.61963 c -0.0075,-0.76693 2.91712,-3.73083 4.99628,-5.04727 -0.01476,-0.30697 0.163836,-0.69129 -0.697612,-0.65958 l -5.790849,1.00114 c -1.264616,0.76509 -3.55233,-2.54394 -4.43618,-2.88388 z"
         id="path832"
         inkscape:connector-curvature="0"
         sodipodi:nodetypes="csscccccccc" />
      <path
         sodipodi:nodetypes="cccssscssssscccc"
         inkscape:connector-curvature="0"
         id="path834"
         d="m 92.736834,125.6297 0.133636,-2.53906 -0.200452,-1.57021 c 0.133962,-1.04394 0.553453,-7.9494 0.575306,-9.42155 0.0027,-0.18447 0.30494,-0.37964 0.369045,-0.60077 0.05665,-0.1954 -0.12388,-0.41837 -0.122039,-0.56654 0.04003,-3.22128 -1.963575,-8.97208 -0.936785,-9.25499 0.0586,0.0981 2.875806,2.54044 3.229884,2.52584 0.284066,-0.0117 0.957433,0.4346 1.869281,-0.19613 0.593614,-0.4106 5.79596,0.84172 7.56349,-0.52671 0.7394,-0.57245 1.77054,-1.0969 1.95005,-0.68151 0.29555,0.68391 0.52311,3.31736 -2.54429,5.66395 -0.59891,0.45817 -1.77788,0.31461 -2.60897,0.79023 -5.461869,2.45772 -6.659533,7.31552 -6.372176,15.32752 -1.39194,5.05559 -2.489141,13.10254 -2.805754,2.05218 z"
         style="fill:#aaeeff;stroke:none;stroke-width:0.26458332px;stroke-linecap:butt;stroke-linejoin:miter;stroke-opacity:1" />
      <path
         style="fill:#aaeeff;stroke:none;stroke-width:0.26458332px;stroke-linecap:butt;stroke-linejoin:miter;stroke-opacity:1"
         d="m 113.49693,102.86823 1.008,9.21924 c -0.48143,2.90299 1.88866,12.23037 1.55776,3.93158 2.39613,-10.18485 3.79492,-6.11764 5.13042,-6.67348 1.7839,-0.74247 6.96224,-3.14513 8.37469,-5.65358 -3.01445,0.73051 -3.03988,0.46356 -11.2167,1.81356 -0.83008,0.51912 -4.27402,-2.40667 -4.85417,-2.63732 z"
         id="path836"
         inkscape:connector-curvature="0"
         sodipodi:nodetypes="cccsccc" />
    </g>
  </g>
</svg>
