<?xml version="1.0" encoding="UTF-8" standalone="no"?>
<!-- Created with Inkscape (http://www.inkscape.org/) -->

<svg
   xmlns:dc="http://purl.org/dc/elements/1.1/"
   xmlns:cc="http://creativecommons.org/ns#"
   xmlns:rdf="http://www.w3.org/1999/02/22-rdf-syntax-ns#"
   xmlns:svg="http://www.w3.org/2000/svg"
   xmlns="http://www.w3.org/2000/svg"
   xmlns:sodipodi="http://sodipodi.sourceforge.net/DTD/sodipodi-0.dtd"
   xmlns:inkscape="http://www.inkscape.org/namespaces/inkscape"
   width="210mm"
   height="297mm"
   viewBox="0 0 210 297"
   version="1.1"
   id="svg944"
   inkscape:version="0.92.2 5c3e80d, 2017-08-06"
   sodipodi:docname="gameOver.svg">
  <defs
     id="defs938">
    <marker
       inkscape:stockid="Arrow1Lstart"
       orient="auto"
       refY="0.0"
       refX="0.0"
       id="marker2400"
       style="overflow:visible"
       inkscape:isstock="true">
      <path
         id="path2398"
         d="M 0.0,0.0 L 5.0,-5.0 L -12.5,0.0 L 5.0,5.0 L 0.0,0.0 z "
         style="fill-rule:evenodd;stroke:#000000;stroke-width:1.0pt"
         transform="scale(0.8) translate(12.5,0)" />
    </marker>
    <marker
       inkscape:stockid="Arrow1Send"
       orient="auto"
       refY="0.0"
       refX="0.0"
       id="Arrow1Send"
       style="overflow:visible;"
       inkscape:isstock="true">
      <path
         id="path2102"
         d="M 0.0,0.0 L 5.0,-5.0 L -12.5,0.0 L 5.0,5.0 L 0.0,0.0 z "
         style="fill-rule:evenodd;stroke:#000000;stroke-width:1.0pt;"
         transform="scale(0.2) rotate(180) translate(6,0)" />
    </marker>
    <marker
       inkscape:stockid="Arrow1Sstart"
       orient="auto"
       refY="0.0"
       refX="0.0"
       id="Arrow1Sstart"
       style="overflow:visible"
       inkscape:isstock="true">
      <path
         id="path2099"
         d="M 0.0,0.0 L 5.0,-5.0 L -12.5,0.0 L 5.0,5.0 L 0.0,0.0 z "
         style="fill-rule:evenodd;stroke:#000000;stroke-width:1.0pt"
         transform="scale(0.2) translate(6,0)" />
    </marker>
    <marker
       inkscape:stockid="Arrow1Mend"
       orient="auto"
       refY="0.0"
       refX="0.0"
       id="Arrow1Mend"
       style="overflow:visible;"
       inkscape:isstock="true">
      <path
         id="path2096"
         d="M 0.0,0.0 L 5.0,-5.0 L -12.5,0.0 L 5.0,5.0 L 0.0,0.0 z "
         style="fill-rule:evenodd;stroke:#000000;stroke-width:1.0pt;"
         transform="scale(0.4) rotate(180) translate(10,0)" />
    </marker>
    <marker
       inkscape:stockid="Arrow1Mstart"
       orient="auto"
       refY="0.0"
       refX="0.0"
       id="Arrow1Mstart"
       style="overflow:visible"
       inkscape:isstock="true">
      <path
         id="path2093"
         d="M 0.0,0.0 L 5.0,-5.0 L -12.5,0.0 L 5.0,5.0 L 0.0,0.0 z "
         style="fill-rule:evenodd;stroke:#000000;stroke-width:1.0pt"
         transform="scale(0.4) translate(10,0)" />
    </marker>
    <marker
       inkscape:stockid="Arrow1Lend"
       orient="auto"
       refY="0.0"
       refX="0.0"
       id="Arrow1Lend"
       style="overflow:visible;"
       inkscape:isstock="true">
      <path
         id="path2090"
         d="M 0.0,0.0 L 5.0,-5.0 L -12.5,0.0 L 5.0,5.0 L 0.0,0.0 z "
         style="fill-rule:evenodd;stroke:#000000;stroke-width:1.0pt;"
         transform="scale(0.8) rotate(180) translate(12.5,0)" />
    </marker>
    <marker
       inkscape:stockid="Arrow1Lstart"
       orient="auto"
       refY="0.0"
       refX="0.0"
       id="Arrow1Lstart"
       style="overflow:visible"
       inkscape:isstock="true">
      <path
         id="path2087"
         d="M 0.0,0.0 L 5.0,-5.0 L -12.5,0.0 L 5.0,5.0 L 0.0,0.0 z "
         style="fill-rule:evenodd;stroke:#000000;stroke-width:1.0pt"
         transform="scale(0.8) translate(12.5,0)" />
    </marker>
  </defs>
  <sodipodi:namedview
     id="base"
     pagecolor="#ffffff"
     bordercolor="#666666"
     borderopacity="1.0"
     inkscape:pageopacity="0.0"
     inkscape:pageshadow="2"
     inkscape:zoom="0.46492271"
     inkscape:cx="331.4287"
     inkscape:cy="747.17288"
     inkscape:document-units="mm"
     inkscape:current-layer="layer1"
     showgrid="false"
     inkscape:snap-global="false"
     inkscape:window-width="1920"
     inkscape:window-height="966"
     inkscape:window-x="0"
     inkscape:window-y="1"
     inkscape:window-maximized="1"
     inkscape:snap-bbox="true"
     showguides="true"
     inkscape:guide-bbox="true"
     inkscape:snap-object-midpoints="true"
     inkscape:bbox-paths="true"
     inkscape:bbox-nodes="true"
     inkscape:snap-bbox-edge-midpoints="true"
     inkscape:snap-bbox-midpoints="true"
     inkscape:object-paths="true"
     inkscape:snap-intersection-paths="true"
     inkscape:snap-smooth-nodes="true"
     inkscape:snap-midpoints="true"
     inkscape:snap-center="true"
     inkscape:snap-page="true" />
  <metadata
     id="metadata941">
    <rdf:RDF>
      <cc:Work
         rdf:about="">
        <dc:format>image/svg+xml</dc:format>
        <dc:type
           rdf:resource="http://purl.org/dc/dcmitype/StillImage" />
        <dc:title></dc:title>
      </cc:Work>
    </rdf:RDF>
  </metadata>
  <g
     inkscape:label="Layer 1"
     inkscape:groupmode="layer"
     id="layer1">
    <g
       id="g3054"
       inkscape:export-xdpi="95.999901"
       inkscape:export-ydpi="95.999901">
      <rect
         y="2.9345245"
         x="34.773838"
         height="158.75"
         width="105.83334"
         id="rect1489"
         style="opacity:0;fill:#ffffff;fill-opacity:0.03030306;stroke:none;stroke-width:0.36514378;stroke-miterlimit:4;stroke-dasharray:none;stroke-opacity:1" />
      <path
         sodipodi:nodetypes="cccccccccccc"
         style="font-style:normal;font-variant:normal;font-weight:bold;font-stretch:normal;font-size:medium;line-height:1.25;font-family:Helvetica;-inkscape-font-specification:'Helvetica Bold';letter-spacing:0px;word-spacing:0px;fill:#d5f6ff;fill-opacity:1;stroke:#000000;stroke-width:0.11593239;stroke-miterlimit:4;stroke-dasharray:none;stroke-opacity:1"
         d="m 123.19827,38.13664 h -5.96252 c -0.88296,2.68903 1.40183,2.51909 3.24729,2.392651 2.27359,-1.101307 3.39913,2.341551 0.69624,1.956926 h -3.94353 c -0.67499,2.282581 0.51755,3.374942 2.67363,2.89717 h 3.56408 c 0.83711,2.873657 -6.3758,2.140091 -8.02419,2.286637 l -0.51444,-0.260913 v -11.26762 h 8.26344 z"
         id="path1935"
         inkscape:connector-curvature="0" />
      <path
         inkscape:connector-curvature="0"
         id="path1937"
         d="m 123.72724,38.401124 c -1.98751,0 -3.97501,0 -5.96252,0 -0.88296,2.689031 1.40183,2.51909 3.24729,2.392651 2.27359,-1.101306 3.39913,2.341552 0.69624,1.956927 -1.31451,0 -2.62902,0 -3.94353,0 -0.67499,2.282581 0.51756,3.37494 2.67363,2.897169 1.18803,0 2.37605,0 3.56408,0 0.83712,2.873657 -2.17224,1.879178 -3.82063,2.025728 -1.57266,0 -3.14533,0 -4.718,0 0,-3.755875 0,-7.51175 0,-11.267624 2.75448,0 5.50896,0 8.26344,0 0,0.66505 0,1.3301 0,1.995149 z"
         style="font-style:normal;font-variant:normal;font-weight:bold;font-stretch:normal;font-size:medium;line-height:1.25;font-family:Helvetica;-inkscape-font-specification:'Helvetica Bold';letter-spacing:0px;word-spacing:0px;fill:#000080;fill-opacity:1;stroke:#000000;stroke-width:0.11593239;stroke-miterlimit:4;stroke-dasharray:none;stroke-opacity:1" />
      <path
         style="fill:#ffffff;stroke:#000000;stroke-width:0.11593238px;stroke-linecap:butt;stroke-linejoin:miter;stroke-opacity:1"
         d="m 114.66207,36.354658 c -0.0791,-0.428461 0.35638,-0.706665 0.72606,-0.760728 0.44517,-0.08805 0.90115,0.01326 1.34859,-0.06897 0.3453,-0.03733 0.69381,-0.08013 1.04115,-0.04364 0.55599,-0.245031 1.05368,0.460886 1.60363,0.183763 0.2588,-0.247462 0.61221,-0.393059 0.97413,-0.30864 0.33804,0.07149 0.68172,0.08943 1.02366,0.112295 0.39912,0.08946 0.85082,0.345805 1.23763,0.07768 0.27474,-0.133577 0.65098,0.0883 0.93203,0.201741 0.32596,0.153012 0.34246,0.530503 0.47317,0.81343 0.0988,0.311214 0.20325,0.706895 -0.0127,0.989962 -0.17893,0.166655 -0.15139,-0.324526 -0.42114,-0.16582 -0.50889,0.217023 -0.64252,-0.364458 -0.84143,-0.6805 -0.4087,-0.235272 -0.33081,0.476782 -0.62948,0.573036 -0.43052,0.161095 -0.95003,0.03637 -1.30421,-0.243741 -0.34027,0.532552 -1.06076,0.638536 -1.62002,0.432342 -0.35171,-0.04649 -0.52974,-0.356702 -0.71486,-0.617746 -0.33588,-0.201375 -0.49633,0.425619 -0.42153,0.687922 0.063,0.345425 0.12556,0.765583 -0.17019,1.028289 -0.0816,0.383319 -0.49436,0.291593 -0.55881,-0.04142 -0.16047,-0.385314 -0.27963,-0.789099 -0.52066,-1.135802 -0.12979,-0.279804 -0.49204,-0.592411 -0.77797,-0.311995 -0.22307,0.326607 -0.686,0.31178 -0.97358,0.08282 -0.32527,-0.171394 -0.34041,-0.557861 -0.39343,-0.804286 z"
         id="path1941"
         inkscape:connector-curvature="0" />
      <path
         style="fill:#ffffff;stroke:#000000;stroke-width:0.11593238px;stroke-linecap:butt;stroke-linejoin:miter;stroke-opacity:1"
         d="m 119.91169,40.909134 c 0.35903,0.145211 0.36095,0.270279 0.7157,0.410202 0.34396,0.194572 0.78194,0.158099 1.09687,-0.07627 0.27397,-0.165845 0.60621,-0.114893 0.895,-0.191122 0.27128,0.38415 0.58625,-0.239273 0.40426,-0.508286 -0.23683,-0.178372 -0.44603,-0.493353 -0.78993,-0.383805 -0.36971,0.02215 -0.75596,-0.03053 -1.0964,0.151303 -0.47941,0.233144 -1.04505,-0.166517 -1.49986,0.145451 -0.82327,0.540268 -0.27133,0.484161 0.27436,0.452525 z"
         id="path1943"
         inkscape:connector-curvature="0"
         sodipodi:nodetypes="ccccccccc" />
      <path
         style="fill:#ffffff;stroke:#000000;stroke-width:0.11593238px;stroke-linecap:butt;stroke-linejoin:miter;stroke-opacity:1"
         d="m 120.80721,45.582847 c 0.45394,-0.216063 0.93841,-0.363917 1.41769,-0.504253 0.47828,-0.06695 1.00603,-0.09956 1.41244,0.213729 0.5939,0.203328 0.42789,0.977008 -0.15543,1.045376 -0.37341,-0.122232 -1.09617,0.258445 -1.19984,-0.286467 -0.57868,-0.379047 -0.32398,1.092765 -0.6829,0.635259 -0.21787,-0.345642 -0.31896,-0.834499 -0.71321,-1.00482 l -0.0467,-0.04101 z"
         id="path1945"
         inkscape:connector-curvature="0" />
      <path
         inkscape:connector-curvature="0"
         id="path1667"
         d="m 48.569831,38.920785 c -2.413982,-4.924852 -8.185416,2.254531 -5.37412,5.663786 1.337171,3.113693 8.21884,-1.114615 3.444443,-1.339358 -2.671349,-2.335931 5.607699,-3.252223 4.188542,-0.02987 0.0031,1.397922 8.77e-4,2.79585 0.0013,4.193777 -1.610046,1.158819 -1.655593,-2.613647 -2.997164,-0.306889 -4.134494,2.451134 -8.788692,-2.472958 -7.394191,-6.688554 0.541455,-3.985175 5.845582,-6.155416 8.859006,-3.444911 2.029623,1.565575 1.873214,2.709411 -0.508435,2.297027 z"
         style="font-style:normal;font-variant:normal;font-weight:bold;font-stretch:normal;font-size:medium;line-height:1.25;font-family:Helvetica;-inkscape-font-specification:'Helvetica Bold';letter-spacing:0px;word-spacing:0px;fill:#d5f6ff;fill-opacity:1;stroke:#000000;stroke-width:0.11593239;stroke-miterlimit:4;stroke-dasharray:none;stroke-opacity:1"
         sodipodi:nodetypes="cccccccccc" />
      <path
         style="font-style:normal;font-variant:normal;font-weight:bold;font-stretch:normal;font-size:medium;line-height:1.25;font-family:Helvetica;-inkscape-font-specification:'Helvetica Bold';letter-spacing:0px;word-spacing:0px;fill:#000080;fill-opacity:1;stroke:#000000;stroke-width:0.11593239;stroke-miterlimit:4;stroke-dasharray:none;stroke-opacity:1"
         d="m 49.00471,39.92233 c -2.413982,-4.924852 -8.091324,1.51747 -5.280027,4.926725 1.337171,3.113697 8.21884,-1.114615 3.444442,-1.339358 -2.671349,-2.33593 5.6077,-3.252222 4.188543,-0.02987 0.0031,1.397921 8.76e-4,2.795853 0.0013,4.193776 -1.610045,1.158818 -1.655593,-2.613646 -2.997163,-0.306885 -4.134494,2.451129 -8.788693,-2.472961 -7.394192,-6.688557 0.541455,-3.985176 5.845582,-6.155416 8.859006,-3.444911 2.029624,1.565574 1.559573,3.101464 -0.822076,2.68908 z"
         id="path1685"
         inkscape:connector-curvature="0" />
      <path
         sodipodi:nodetypes="cccccccccccccccccc"
         inkscape:connector-curvature="0"
         id="path1791"
         d="m 40.575956,38.499697 c -0.215474,0.545779 0.11672,1.225972 0.628949,1.474489 0.501844,0.156408 0.533901,-0.502917 0.653245,-0.819297 0.463855,-1.114219 1.590753,-1.768466 2.692513,-2.121415 0.339021,-0.292791 0.616645,0.0374 0.526623,0.400076 0.56516,0.12864 0.846447,-0.502389 1.196234,-0.81799 0.346601,-0.417115 0.613302,0.312868 0.792934,0.308306 0.291869,-0.20994 0.732615,-0.47466 1.072223,-0.214068 0.878223,0.14724 1.3849,0.952638 1.998631,1.50971 0.276705,0.285698 0.701703,0.407771 0.831695,0.819949 0.135517,0.600418 0.554135,0.49532 0.392735,-0.418643 -0.269189,-0.723778 -0.262367,-1.505904 -0.970374,-1.950054 -0.849419,-0.407833 -1.642291,-0.960504 -2.565532,-1.205681 -1.035342,-0.264464 -2.151693,-0.60403 -3.205522,-0.230565 -0.313475,0.121308 -0.593242,0.31405 -0.936083,0.349797 -0.756483,0.156546 -1.631148,0.3321 -2.059165,1.049034 -0.279395,0.55387 -0.733751,1.008294 -0.953322,1.597898 -0.03597,0.08797 -0.06809,0.177533 -0.09578,0.268454 z"
         style="fill:#ffffff;stroke:#000000;stroke-width:0.11593238px;stroke-linecap:butt;stroke-linejoin:miter;stroke-opacity:1" />
      <path
         inkscape:connector-curvature="0"
         id="path1798"
         d="m 47.178139,42.796603 c -0.02945,0.229193 -0.242948,0.428759 -0.481303,0.378996 -0.391251,-0.0701 -0.756268,-0.433767 -0.738426,-0.846268 0.03405,-0.262773 0.25158,-0.446901 0.407397,-0.644597 0.349107,-0.39015 0.838206,-0.732549 1.386272,-0.684663 0.890519,-0.04841 1.817147,-0.255406 2.683588,0.05628 0.230569,0.105545 0.417519,0.29218 0.618774,0.445511 0.406389,0.340895 0.812016,0.802057 0.787527,1.367167 -0.04585,0.214515 -0.01117,0.526774 -0.230902,0.646858 -0.273918,-0.06123 -0.236879,-0.4227 -0.24247,-0.638627 -0.06965,-0.373012 -0.497253,-0.680991 -0.868466,-0.540181 -0.250256,0.125099 -0.174943,0.433593 -0.137773,0.650424 0.0096,0.114675 -0.08459,0.546945 -0.212495,0.360916 -0.0049,-0.217197 -0.03028,-0.445183 -0.18875,-0.611937 -0.342824,-0.387694 -0.931553,-0.421135 -1.400579,-0.286166 -0.385182,0.166362 -0.834108,0.05392 -1.21525,0.241926 -0.0594,0.02835 -0.115747,0.06322 -0.167144,0.104365 z"
         style="fill:#ffffff;stroke:#000000;stroke-width:0.11593238px;stroke-linecap:butt;stroke-linejoin:miter;stroke-opacity:1" />
      <path
         inkscape:connector-curvature="0"
         id="path1669"
         d="m 56.150564,43.151267 c 2.267914,0.600761 3.228618,-0.413396 2.108105,-2.366789 -0.353191,-1.128869 -0.703101,-2.959473 -1.071715,-0.796937 -0.345462,1.054575 -0.690928,2.10915 -1.03639,3.163726 z m 0.145245,-7.009776 c 2.349514,-0.765601 3.2539,0.937868 3.680388,2.880755 0.990036,2.795623 1.980071,5.591244 2.970111,8.386865 -2.288599,0.73152 -2.718934,-0.853497 -3.636181,-2.260717 -2.377741,-0.6619 -4.106298,0.342205 -4.791946,2.458586 -2.716069,0.740187 -1.802091,-1.622003 -1.216543,-3.074974 0.998058,-2.796839 1.996117,-5.593677 2.994171,-8.390515 z"
         style="font-style:normal;font-variant:normal;font-weight:bold;font-stretch:normal;font-size:medium;line-height:1.25;font-family:Helvetica;-inkscape-font-specification:'Helvetica Bold';letter-spacing:0px;word-spacing:0px;fill:#d5f6ff;fill-opacity:1;stroke:#000000;stroke-width:0.11593239;stroke-miterlimit:4;stroke-dasharray:none;stroke-opacity:1"
         sodipodi:nodetypes="ccccccccccc" />
      <path
         style="font-style:normal;font-variant:normal;font-weight:bold;font-stretch:normal;font-size:medium;line-height:1.25;font-family:Helvetica;-inkscape-font-specification:'Helvetica Bold';letter-spacing:0px;word-spacing:0px;fill:#000080;fill-opacity:1;stroke:#000000;stroke-width:0.11593239;stroke-miterlimit:4;stroke-dasharray:none;stroke-opacity:1"
         d="m 56.679536,43.415752 c 2.267913,0.600761 3.228618,-0.413397 2.108104,-2.36679 -0.353191,-1.128869 -0.7031,-2.959472 -1.071715,-0.796937 -0.345461,1.054576 -0.690927,2.109151 -1.036389,3.163727 z m 0.145244,-7.009777 c 2.349514,-0.7656 3.253901,0.937868 3.680389,2.880755 0.990035,2.795623 1.980071,5.591245 2.970111,8.386869 -2.2886,0.73152 -2.718935,-0.853502 -3.636182,-2.260723 -2.37774,-0.661898 -4.304293,0.159441 -4.989941,2.275823 -2.716069,0.740186 -1.604095,-1.439239 -1.018547,-2.892209 0.998058,-2.796839 1.996116,-5.593676 2.99417,-8.390515 z"
         id="path1687"
         inkscape:connector-curvature="0" />
      <path
         sodipodi:nodetypes="cccccccccc"
         inkscape:connector-curvature="0"
         id="path1815"
         d="m 55.737108,36.4804 c 0.01113,-0.879352 0.85617,-1.461291 1.686046,-1.345494 0.835997,-0.286982 1.730748,-0.01627 1.959437,0.894482 0.689701,-0.138997 1.230534,0.324759 1.012216,1.087194 0.02695,0.8662 0.298674,1.72503 0.155318,2.608985 -0.191993,0.886766 -0.558263,-0.670857 -0.744612,-0.999321 -0.147703,-0.334857 -0.189242,-1.400014 -0.769737,-0.884833 -0.700458,-0.897267 -0.983639,0.297301 -1.261241,0.766516 -0.867182,0.19778 -0.599718,-2.06466 -1.346276,-0.915304 -1.064542,-0.07984 -0.692431,-1.028291 -0.691151,-1.212225 z"
         style="fill:#ffffff;stroke:#000000;stroke-width:0.11593238px;stroke-linecap:butt;stroke-linejoin:miter;stroke-opacity:1" />
      <path
         inkscape:connector-curvature="0"
         id="path1671"
         d="m 71.851852,36.141491 c 2.13896,-0.371053 4.069877,-0.004 3.386398,2.482092 0,2.92851 0,5.85702 0,8.785528 -4.021188,0.811197 -1.506686,-4.647769 -2.193587,-6.919294 0.148207,-2.927568 -0.07972,-2.453216 -0.530965,-0.115678 -0.528901,2.344991 -1.057807,4.68998 -1.586708,7.034972 -2.56565,0.864553 -2.685936,-1.587607 -3.037002,-3.355407 -0.455359,-2.033509 -0.910723,-4.067019 -1.366086,-6.100529 -0.273208,3.009834 0.616154,7.196594 -0.440523,9.470278 -2.580289,0.67064 -1.552531,-2.15338 -1.737991,-3.643752 0,-2.546072 0,-5.092142 0,-7.638213 1.970116,-0.266748 4.082133,-0.212683 3.940806,2.232283 0.510827,2.209134 1.021649,4.418268 1.532476,6.627402 0.677726,-2.953229 1.355452,-5.906457 2.033182,-8.859685 z"
         style="font-style:normal;font-variant:normal;font-weight:bold;font-stretch:normal;font-size:medium;line-height:1.25;font-family:Helvetica;-inkscape-font-specification:'Helvetica Bold';letter-spacing:0px;word-spacing:0px;fill:#d5f6ff;fill-opacity:1;stroke:#000000;stroke-width:0.11593239;stroke-miterlimit:4;stroke-dasharray:none;stroke-opacity:1" />
      <path
         style="font-style:normal;font-variant:normal;font-weight:bold;font-stretch:normal;font-size:medium;line-height:1.25;font-family:Helvetica;-inkscape-font-specification:'Helvetica Bold';letter-spacing:0px;word-spacing:0px;fill:#000080;fill-opacity:1;stroke:#000000;stroke-width:0.11593239;stroke-miterlimit:4;stroke-dasharray:none;stroke-opacity:1"
         d="m 72.380823,36.405975 c 2.13896,-0.371053 4.069877,-0.004 3.386399,2.482092 0,2.92851 0,5.857021 0,8.785532 -4.021188,0.811197 -1.506686,-4.647773 -2.193587,-6.919298 0.148206,-2.927568 -0.07972,-2.453216 -0.530965,-0.115677 -0.528902,2.34499 -1.057808,4.68998 -1.586709,7.034971 -2.56565,0.864557 -2.685936,-1.587607 -3.037002,-3.355406 -0.455359,-2.03351 -0.910722,-4.06702 -1.366086,-6.100529 -0.273207,3.009833 0.616154,7.196592 -0.440522,9.470276 -2.580289,0.670641 -1.552532,-2.15338 -1.737991,-3.643751 0,-2.546071 0,-5.092142 0,-7.638213 1.970115,-0.266747 4.082132,-0.212683 3.940805,2.232284 0.510827,2.209133 1.02165,4.418268 1.532477,6.627401 0.677725,-2.953228 1.355451,-5.906457 2.033181,-8.859685 z"
         id="path1689"
         inkscape:connector-curvature="0" />
      <path
         inkscape:connector-curvature="0"
         id="path1846"
         d="m 63.890515,36.607742 c 0.15981,0.624171 0.209621,1.370774 0.681678,1.84307 0.645911,0.101613 0.706159,-0.738472 0.720207,-1.195315 0.137081,-0.596542 0.70154,-0.03541 1.069883,-0.30826 0.447511,0.416376 1.051331,0.445477 1.647636,0.371771 0.648346,0.414205 0.922956,-0.592455 0.360982,-0.85933 -0.484178,-0.227654 -0.625189,-0.939777 -1.25735,-0.868698 -0.574502,-0.02826 -1.134447,-0.07837 -1.715123,0.008 -0.473052,0.01757 -1.215434,0.03287 -1.352691,0.624311 -0.05266,0.127799 -0.0985,0.258353 -0.155222,0.384489 z"
         style="fill:#ffffff;stroke:#000000;stroke-width:0.11593238px;stroke-linecap:butt;stroke-linejoin:miter;stroke-opacity:1" />
      <path
         inkscape:connector-curvature="0"
         id="path1864"
         d="m 71.945072,35.68661 c -0.635333,0.292121 -0.166224,1.067573 0.386514,0.985581 0.517233,0.231179 1.100765,0.01126 1.614186,0.09605 0.415657,0.548355 1.084212,0.154879 1.536043,0.508442 0.129865,0.487456 -0.261648,1.37308 0.410044,1.592847 0.513526,-0.125259 0.660479,-0.998119 0.294091,-1.358054 -0.241476,-0.441319 0.01972,-1.105119 -0.60485,-1.296796 -0.55141,-0.449993 -1.302078,-0.429022 -1.977034,-0.488794 -0.543331,-0.764361 -1.077232,-0.0021 -1.765973,0.02499"
         style="fill:#ffffff;stroke:#000000;stroke-width:0.11593238px;stroke-linecap:butt;stroke-linejoin:miter;stroke-opacity:1" />
      <path
         inkscape:connector-curvature="0"
         id="path1673"
         d="m 85.772028,38.13664 h -5.962516 c -0.88296,2.68903 1.401831,2.51909 3.247284,2.392651 2.273592,-1.101307 3.399131,2.341551 0.696242,1.956926 h -3.943526 c -0.674992,2.282581 0.517553,3.374942 2.673623,2.89717 h 3.564085 c 0.837114,2.873657 -6.375802,2.140091 -8.024192,2.286637 l -0.514437,-0.260913 v -11.26762 h 8.263437 z"
         style="font-style:normal;font-variant:normal;font-weight:bold;font-stretch:normal;font-size:medium;line-height:1.25;font-family:Helvetica;-inkscape-font-specification:'Helvetica Bold';letter-spacing:0px;word-spacing:0px;fill:#d5f6ff;fill-opacity:1;stroke:#000000;stroke-width:0.11593239;stroke-miterlimit:4;stroke-dasharray:none;stroke-opacity:1"
         sodipodi:nodetypes="cccccccccccc" />
      <path
         style="font-style:normal;font-variant:normal;font-weight:bold;font-stretch:normal;font-size:medium;line-height:1.25;font-family:Helvetica;-inkscape-font-specification:'Helvetica Bold';letter-spacing:0px;word-spacing:0px;fill:#000080;fill-opacity:1;stroke:#000000;stroke-width:0.11593239;stroke-miterlimit:4;stroke-dasharray:none;stroke-opacity:1"
         d="m 86.300999,38.401124 c -1.987507,0 -3.975009,0 -5.962516,0 -0.88296,2.689031 1.401832,2.51909 3.247284,2.392651 2.273592,-1.101306 3.399132,2.341552 0.696243,1.956927 -1.314509,0 -2.629018,0 -3.943527,0 -0.674991,2.282581 0.517553,3.37494 2.673624,2.897169 1.188031,0 2.376058,0 3.564085,0 0.837114,2.873657 -2.17224,1.879178 -3.820629,2.025728 -1.572666,0 -3.145331,0 -4.718001,0 0,-3.755875 0,-7.51175 0,-11.267624 2.754479,0 5.508958,0 8.263437,0 0,0.66505 0,1.3301 0,1.995149 z"
         id="path1691"
         inkscape:connector-curvature="0" />
      <path
         inkscape:connector-curvature="0"
         id="path1871"
         d="m 77.235835,36.354658 c -0.07913,-0.428461 0.356376,-0.706665 0.726051,-0.760728 0.445176,-0.08805 0.901157,0.01326 1.348594,-0.06897 0.345295,-0.03733 0.693811,-0.08013 1.041153,-0.04364 0.555989,-0.245031 1.053679,0.460886 1.60363,0.183763 0.258792,-0.247462 0.612211,-0.393059 0.974126,-0.30864 0.338043,0.07149 0.681717,0.08943 1.023665,0.112295 0.399116,0.08946 0.85082,0.345805 1.237628,0.07768 0.274736,-0.133577 0.65098,0.0883 0.932026,0.201741 0.325963,0.153012 0.342465,0.530503 0.473171,0.81343 0.0988,0.311214 0.203253,0.706895 -0.01275,0.989962 -0.178927,0.166655 -0.151388,-0.324526 -0.421138,-0.16582 -0.50889,0.217023 -0.642523,-0.364458 -0.841426,-0.6805 -0.408707,-0.235272 -0.330814,0.476782 -0.629483,0.573036 -0.430524,0.161095 -0.950027,0.03637 -1.304208,-0.243741 -0.340269,0.532552 -1.060765,0.638536 -1.620023,0.432342 -0.351714,-0.04649 -0.529742,-0.356702 -0.714865,-0.617746 -0.335878,-0.201375 -0.496323,0.425619 -0.421523,0.687922 0.06296,0.345425 0.125562,0.765583 -0.17019,1.028289 -0.08165,0.383319 -0.494364,0.291593 -0.558815,-0.04142 -0.160466,-0.385314 -0.279627,-0.789099 -0.520659,-1.135802 -0.129786,-0.279804 -0.492043,-0.592411 -0.777966,-0.311995 -0.223072,0.326607 -0.685998,0.31178 -0.973587,0.08282 -0.325262,-0.171394 -0.340401,-0.557861 -0.393423,-0.804286 z"
         style="fill:#ffffff;stroke:#000000;stroke-width:0.11593238px;stroke-linecap:butt;stroke-linejoin:miter;stroke-opacity:1" />
      <path
         sodipodi:nodetypes="ccccccccc"
         inkscape:connector-curvature="0"
         id="path1873"
         d="m 82.485453,40.909134 c 0.359023,0.145211 0.360942,0.270279 0.715698,0.410202 0.343963,0.194572 0.781935,0.158099 1.09687,-0.07627 0.273965,-0.165845 0.606207,-0.114893 0.895,-0.191122 0.271276,0.38415 0.586254,-0.239273 0.404256,-0.508286 -0.236831,-0.178372 -0.446031,-0.493353 -0.789928,-0.383805 -0.36971,0.02215 -0.755957,-0.03053 -1.096397,0.151303 -0.479414,0.233144 -1.045052,-0.166517 -1.499863,0.145451 -0.823273,0.540268 -0.271328,0.484161 0.274364,0.452525 z"
         style="fill:#ffffff;stroke:#000000;stroke-width:0.11593238px;stroke-linecap:butt;stroke-linejoin:miter;stroke-opacity:1" />
      <path
         inkscape:connector-curvature="0"
         id="path1889"
         d="m 83.380971,45.582847 c 0.453939,-0.216063 0.93841,-0.363917 1.417685,-0.504253 0.478284,-0.06695 1.006033,-0.09956 1.412448,0.213729 0.593895,0.203328 0.427882,0.977008 -0.155432,1.045376 -0.373408,-0.122232 -1.096173,0.258445 -1.19984,-0.286467 -0.578686,-0.379047 -0.323987,1.092765 -0.682904,0.635259 -0.217867,-0.345642 -0.318957,-0.834499 -0.713209,-1.00482 l -0.04673,-0.04101 z"
         style="fill:#ffffff;stroke:#000000;stroke-width:0.11593238px;stroke-linecap:butt;stroke-linejoin:miter;stroke-opacity:1" />
      <path
         inkscape:connector-curvature="0"
         id="path1675"
         d="m 97.223109,45.727381 c 4.639931,-0.207083 3.832691,-9.033033 -0.897367,-7.832139 -3.231817,1.203948 -2.937954,7.76598 0.897367,7.832139 z m 5.396841,-3.967367 c 0.70532,4.36331 -4.795782,7.729347 -8.388032,5.189895 -3.909635,-2.608029 -3.1346,-10.268536 1.854588,-11.070234 3.543618,-0.951951 6.985274,2.312204 6.533444,5.880339 z"
         style="font-style:normal;font-variant:normal;font-weight:bold;font-stretch:normal;font-size:medium;line-height:1.25;font-family:Helvetica;-inkscape-font-specification:'Helvetica Bold';letter-spacing:0px;word-spacing:0px;fill:#d5f6ff;fill-opacity:1;stroke:#000000;stroke-width:0.11593239;stroke-miterlimit:4;stroke-dasharray:none;stroke-opacity:1" />
      <path
         style="font-style:normal;font-variant:normal;font-weight:bold;font-stretch:normal;font-size:medium;line-height:1.25;font-family:Helvetica;-inkscape-font-specification:'Helvetica Bold';letter-spacing:0px;word-spacing:0px;fill:#000080;fill-opacity:1;stroke:#000000;stroke-width:0.11593239;stroke-miterlimit:4;stroke-dasharray:none;stroke-opacity:1"
         d="m 97.75208,45.991865 c 4.63993,-0.207084 3.83269,-9.033033 -0.897367,-7.832139 -3.231816,1.203949 -2.937953,7.765984 0.897367,7.832139 z m 5.39684,-3.967367 c 0.70532,4.363314 -4.79578,7.729347 -8.388031,5.189895 -3.909634,-2.608029 -3.1346,-10.268535 1.854588,-11.070234 3.543623,-0.951951 6.985273,2.312205 6.533443,5.880339 z"
         id="path1693"
         inkscape:connector-curvature="0" />
      <path
         sodipodi:nodetypes="ccccccccccccccc"
         inkscape:connector-curvature="0"
         id="path1897"
         d="m 92.551743,37.706853 c -0.104162,0.879475 0.918434,2.293399 1.250203,0.807611 0.09195,-0.489639 1.006173,-1.728771 0.955889,-0.567168 0.06573,1.07784 1.208301,-0.511272 1.444238,-0.922971 0.500924,-0.697652 1.471873,-0.08487 2.226519,-0.341757 0.184785,0.433925 0.429227,0.558332 0.758665,0.157267 0.793933,3.099947 1.557103,1.56119 1.501263,1.807525 -0.0388,0.791196 0.90608,1.255595 0.73733,2.10659 0.91703,-0.01882 0.64147,-1.492209 0.91547,-2.185818 -0.0541,-0.853732 -0.5818,-1.587805 -1.33123,-1.85439 -0.43231,-0.958041 -1.696649,-0.610043 -2.49591,-1.066368 -0.811937,-0.510844 -1.723772,-0.130387 -2.580604,-0.01261 -1.039834,-0.331876 -1.798003,0.670588 -2.673203,1.03835 -0.339516,0.25471 -0.61544,0.613624 -0.70863,1.033743 z"
         style="fill:#ffffff;stroke:#000000;stroke-width:0.11593238px;stroke-linecap:butt;stroke-linejoin:miter;stroke-opacity:1" />
      <path
         inkscape:connector-curvature="0"
         id="path1681"
         d="m 127.6778,38.098419 c -1.65688,3.486817 3.62456,4.237086 4.58848,1.564303 -0.10936,-2.354097 -3.13523,-1.338629 -4.58848,-1.564303 z m 3.22587,-1.956928 c 4.25672,-0.786915 3.63196,4.913088 2.72219,6.531866 1.55143,1.652158 1.72266,5.941917 -1.61888,3.935516 0.92696,-2.842175 -2.20372,-4.739934 -4.28644,-3.264351 0.32875,1.991883 0.26665,5.234765 -2.34367,3.682777 V 36.141491 Z"
         style="font-style:normal;font-variant:normal;font-weight:bold;font-stretch:normal;font-size:medium;line-height:1.25;font-family:Helvetica;-inkscape-font-specification:'Helvetica Bold';letter-spacing:0px;word-spacing:0px;fill:#d5f6ff;fill-opacity:1;stroke:#000000;stroke-width:0.11593239;stroke-miterlimit:4;stroke-dasharray:none;stroke-opacity:1"
         sodipodi:nodetypes="cccccccccc" />
      <path
         style="font-style:normal;font-variant:normal;font-weight:bold;font-stretch:normal;font-size:medium;line-height:1.25;font-family:Helvetica;-inkscape-font-specification:'Helvetica Bold';letter-spacing:0px;word-spacing:0px;fill:#000080;fill-opacity:1;stroke:#000000;stroke-width:0.11593239;stroke-miterlimit:4;stroke-dasharray:none;stroke-opacity:1"
         d="m 128.20677,38.362903 c -1.65688,3.486817 3.62456,4.237087 4.58848,1.564304 -0.10936,-2.354097 -3.13523,-1.338629 -4.58848,-1.564304 z m 3.22587,-1.956928 c 4.25672,-0.786915 3.63196,4.913088 2.72219,6.531867 1.55144,1.652158 1.03652,6.971119 -1.61888,3.935515 0.92696,-2.842174 -2.20372,-4.739934 -4.28644,-3.26435 0.32876,1.991883 -0.004,5.591719 -2.34366,3.682776 0,-3.628601 0,-7.257205 0,-10.885808 1.84226,0 3.68453,0 5.52679,0 z"
         id="path1699"
         inkscape:connector-curvature="0" />
      <path
         inkscape:connector-curvature="0"
         id="path1951"
         d="m 125.37687,36.14149 c -0.82433,0.733704 0.66885,2.465346 1.11964,0.896369 0.43724,0.05906 0.6485,0.760765 1.29917,0.312045 0.87117,-0.552908 1.97339,-0.2797 1.94215,0.861912 0.77031,0.101136 0.76549,-1.725031 1.92771,-1.236988 0.73638,0.598905 2.22597,0.540463 2.3755,1.671221 -0.32988,1.094788 1.7248,1.608403 0.99542,0.192912 0.1164,-1.085885 -0.0839,-2.120687 -1.19724,-2.567718 -1.02527,-0.444094 -2.02926,-1.342135 -3.21821,-1.070181 -0.87706,0.56245 -2.16807,0.346421 -3.231,0.275622 -0.79339,-0.470753 -1.42379,0.218645 -2.01314,0.664806 z"
         style="fill:#ffffff;stroke:#000000;stroke-width:0.11593238px;stroke-linecap:butt;stroke-linejoin:miter;stroke-opacity:1" />
      <path
         inkscape:connector-curvature="0"
         id="path1677"
         d="m 111.00569,36.141491 c 2.96948,-0.856548 2.14208,1.358387 1.39741,3.073268 -0.9321,2.731451 -1.86421,5.462903 -2.79631,8.194352 -2.46575,0.83534 -2.77025,-1.559489 -3.32508,-3.257602 -0.90207,-2.670006 -1.80415,-5.340012 -2.70623,-8.010018 2.37969,-0.798261 3.02279,1.04542 3.35522,2.93828 0.5353,1.871878 1.0706,3.743756 1.6059,5.615634 0.82303,-2.851305 1.64606,-5.70261 2.46909,-8.553914 z"
         style="font-style:normal;font-variant:normal;font-weight:bold;font-stretch:normal;font-size:medium;line-height:1.25;font-family:Helvetica;-inkscape-font-specification:'Helvetica Bold';letter-spacing:0px;word-spacing:0px;fill:#d5f6ff;fill-opacity:1;stroke:#000000;stroke-width:0.11593239;stroke-miterlimit:4;stroke-dasharray:none;stroke-opacity:1" />
      <path
         style="font-style:normal;font-variant:normal;font-weight:bold;font-stretch:normal;font-size:medium;line-height:1.25;font-family:Helvetica;-inkscape-font-specification:'Helvetica Bold';letter-spacing:0px;word-spacing:0px;fill:#000080;fill-opacity:1;stroke:#000000;stroke-width:0.11593239;stroke-miterlimit:4;stroke-dasharray:none;stroke-opacity:1"
         d="m 111.53466,36.405975 c 2.96949,-0.856548 2.14208,1.358387 1.39741,3.073268 -0.9321,2.731452 -1.8642,5.462903 -2.79631,8.194356 -2.46575,0.835336 -2.77025,-1.559494 -3.32508,-3.257605 -0.90207,-2.670007 -1.80415,-5.340013 -2.70623,-8.010019 2.37969,-0.798261 3.02279,1.04542 3.35522,2.938281 0.5353,1.871878 1.0706,3.743755 1.6059,5.615634 0.82303,-2.851305 1.64606,-5.70261 2.46909,-8.553915 z"
         id="path1695"
         inkscape:connector-curvature="0" />
      <path
         sodipodi:nodetypes="ccccccccccccccc"
         inkscape:connector-curvature="0"
         id="path1911"
         d="m 110.75887,36.206389 c -0.0305,0.257224 0.1799,0.45806 0.38418,0.575378 0.15673,0.09467 0.32725,0.16262 0.49441,0.236105 0.17211,-0.09188 0.39576,-0.175818 0.57905,-0.07068 0.12927,0.09066 0.0943,0.262072 0.0829,0.394514 0.004,0.305239 -0.11005,0.62276 0.003,0.919189 0.0713,0.169756 0.28736,0.259569 0.45612,0.181608 0.38575,-0.130127 0.61367,-0.586938 0.50373,-0.975541 -0.0199,-0.410803 0.45681,-0.679381 0.37579,-1.094602 -0.0881,-0.142577 -0.12883,-0.375003 -0.19127,-0.521715 -0.1037,-0.170799 -0.32713,-0.179644 -0.50449,-0.207891 -0.23652,-0.01581 -0.46432,-0.08448 -0.70052,-0.102077 -0.36618,-0.03547 -0.7442,-0.02756 -1.09646,0.08843 -0.20042,0.129704 -0.3325,0.347863 -0.38697,0.577288 z"
         style="fill:#ffffff;stroke:#000000;stroke-width:0.11593238px;stroke-linecap:butt;stroke-linejoin:miter;stroke-opacity:1" />
      <path
         inkscape:connector-curvature="0"
         id="path1903"
         d="m 103.50289,35.758489 c -0.0403,0.370835 0.24019,0.689511 0.54713,0.85597 0.14359,0.08644 0.30801,0.12173 0.46821,0.161052 0.22601,0.08128 0.2797,0.340442 0.33013,0.546909 0.0421,0.179074 0.12979,0.408487 0.34158,0.425279 0.23895,0.0091 0.34755,-0.241199 0.50511,-0.37475 0.13578,-0.142108 0.33719,-0.01591 0.41353,0.123689 0.21961,0.33583 0.27657,0.742123 0.33216,1.131019 0.28221,-0.139591 0.36222,-0.474264 0.40711,-0.759069 0.0255,-0.19346 0.0391,-0.387815 0.067,-0.580741 0.0313,-0.342334 -0.12095,-0.721006 -0.44572,-0.871757 -0.2015,-0.05217 -0.28277,-0.267685 -0.44776,-0.380369 -0.16794,-0.148332 -0.40808,-0.192891 -0.62159,-0.133171 -0.35402,-0.08597 -0.68097,-0.340883 -1.06137,-0.273433 -0.14432,0.03705 -0.28436,0.09501 -0.43632,0.09579 -0.13313,0.01015 -0.26736,0.01047 -0.39922,0.03358 z"
         style="fill:#ffffff;stroke:#000000;stroke-width:0.11593238px;stroke-linecap:butt;stroke-linejoin:miter;stroke-opacity:1" />
    </g>
  </g>
</svg>
