<?xml version="1.0" encoding="UTF-8" standalone="no"?>
<!-- Created with Inkscape (http://www.inkscape.org/) -->

<svg
   xmlns:dc="http://purl.org/dc/elements/1.1/"
   xmlns:cc="http://creativecommons.org/ns#"
   xmlns:rdf="http://www.w3.org/1999/02/22-rdf-syntax-ns#"
   xmlns:svg="http://www.w3.org/2000/svg"
   xmlns="http://www.w3.org/2000/svg"
   xmlns:xlink="http://www.w3.org/1999/xlink"
   xmlns:sodipodi="http://sodipodi.sourceforge.net/DTD/sodipodi-0.dtd"
   xmlns:inkscape="http://www.inkscape.org/namespaces/inkscape"
   width="210mm"
   height="297mm"
   viewBox="0 0 210 297"
   version="1.1"
   id="svg874"
   inkscape:version="0.92.2 5c3e80d, 2017-08-06"
   sodipodi:docname="grid.svg">
  <defs
     id="defs868">
    <linearGradient
       inkscape:collect="always"
       id="linearGradient1439">
      <stop
         style="stop-color:#9393ff;stop-opacity:1"
         offset="0"
         id="stop1435" />
      <stop
         style="stop-color:#ffd4cf;stop-opacity:1"
         offset="1"
         id="stop1437" />
    </linearGradient>
    <linearGradient
       inkscape:collect="always"
       id="linearGradient1431">
      <stop
         style="stop-color:#7be0ff;stop-opacity:1"
         offset="0"
         id="stop1427" />
      <stop
         style="stop-color:#ebebeb;stop-opacity:1"
         offset="1"
         id="stop1429" />
    </linearGradient>
    <linearGradient
       inkscape:collect="always"
       xlink:href="#linearGradient1431"
       id="linearGradient1433"
       x1="-649.05115"
       y1="766.07489"
       x2="-647.50781"
       y2="501.27539"
       gradientUnits="userSpaceOnUse" />
    <linearGradient
       inkscape:collect="always"
       xlink:href="#linearGradient1439"
       id="linearGradient1441"
       x1="-176.0045"
       y1="44.775127"
       x2="-175.74263"
       y2="139.92308"
       gradientUnits="userSpaceOnUse" />
  </defs>
  <sodipodi:namedview
     id="base"
     pagecolor="#ffffff"
     bordercolor="#666666"
     borderopacity="1.0"
     inkscape:pageopacity="0.0"
     inkscape:pageshadow="2"
     inkscape:zoom="1.7249995"
     inkscape:cx="-1455.6847"
     inkscape:cy="929.1356"
     inkscape:document-units="mm"
     inkscape:current-layer="layer1"
     showgrid="false"
     inkscape:window-width="1920"
     inkscape:window-height="966"
     inkscape:window-x="0"
     inkscape:window-y="1"
     inkscape:window-maximized="1"
     inkscape:snap-global="true"
     inkscape:snap-bbox="true"
     inkscape:bbox-paths="true"
     inkscape:bbox-nodes="true" />
  <metadata
     id="metadata871">
    <rdf:RDF>
      <cc:Work
         rdf:about="">
        <dc:format>image/svg+xml</dc:format>
        <dc:type
           rdf:resource="http://purl.org/dc/dcmitype/StillImage" />
        <dc:title />
      </cc:Work>
    </rdf:RDF>
  </metadata>
  <g
     inkscape:label="Layer 1"
     inkscape:groupmode="layer"
     id="layer1">
    <rect
       style="opacity:1;fill:#000080;fill-opacity:0;stroke:none;stroke-width:1.80078852;stroke-miterlimit:4;stroke-dasharray:none;stroke-opacity:1"
       id="rect3670"
       width="105.83334"
       height="158.75"
       x="-444.20181"
       y="-68.878616"
       inkscape:export-xdpi="95.999901"
       inkscape:export-ydpi="95.999901" />
    <g
       id="g1445"
       inkscape:export-xdpi="95.999939"
       inkscape:export-ydpi="95.999939"
       transform="matrix(1,0,0,1.0178571,0,-3.6296763)">
      <rect
         ry="0"
         y="44.511906"
         x="-226.78572"
         height="158.75"
         width="105.83334"
         id="rect1419"
         style="fill:url(#linearGradient1441);fill-opacity:1;stroke:none;stroke-width:0.26499999;stroke-miterlimit:4;stroke-dasharray:none;stroke-opacity:1" />
      <path
         id="rect1421"
         transform="scale(0.26458333)"
         d="m -710.13672,485.11328 -19.19336,5.05078 -17.17187,19.19336 -15.15235,-8.08203 -36.36523,4.04102 -14.14258,-10.10157 -17.17383,11.11133 h -20.20312 l -7.60352,1.90039 v 260.00782 h 400 v -263.8418 l -2.47656,-0.0859 -16.16211,-2.02148 -30.30469,13.13281 -27.27539,-16.16211 -20.20312,-6.06055 -20.20313,20.20313 -25.25195,5.05078 -48.48828,-17.17383 -23.23438,7.07227 -33.33398,-5.05078 z"
         style="opacity:1;fill:url(#linearGradient1433);fill-opacity:1;stroke:none;stroke-width:1.00157475;stroke-miterlimit:4;stroke-dasharray:none;stroke-opacity:1"
         inkscape:connector-curvature="0" />
    </g>
    <g
       id="g936">
      <path
         inkscape:connector-curvature="0"
         id="rect831"
         d="m -326.32598,279.80169 v 10e-4 c -0.99434,0.0265 -1.95196,0.62396 -1.96683,1.71887 0.0207,0.82595 1.21968,1.45632 1.55565,0.72648 -1.56512,0.23467 -1.18518,-1.87718 0.16052,-1.83195 3.04473,0.1072 1.34706,5.21751 -1.93036,5.46694 -0.0356,10e-4 -0.0734,0.009 -0.11049,0.0145 h -0.66133 c 0.4381,-0.48819 0.71329,-1.11874 0.7515,-1.9409 0.20748,-1.75777 -0.93133,-3.86586 -2.81319,-4.13015 -0.14088,-0.0198 -0.28319,-0.028 -0.42525,-0.0243 v 5.2e-4 c -0.99433,0.0265 -1.95249,0.62448 -1.96735,1.71939 0.0207,0.82595 1.21916,1.45632 1.55513,0.72648 -1.56512,0.23467 -1.18467,-1.87718 0.16103,-1.83195 3.04473,0.1072 1.34706,5.21699 -1.93036,5.46642 -0.0354,0.001 -0.0734,0.009 -0.11049,0.0145 h -0.71969 c 0.43808,-0.48819 0.71326,-1.11874 0.7515,-1.9409 0.20746,-1.75777 -0.93131,-3.86586 -2.81319,-4.13015 -0.14091,-0.0198 -0.28371,-0.028 -0.42577,-0.0243 -0.99435,0.0265 -1.95251,0.62448 -1.96734,1.71939 0.0207,0.82595 1.21914,1.45632 1.55511,0.72648 -1.56512,0.23467 -1.18464,-1.87718 0.16103,-1.83195 3.04474,0.1072 1.34704,5.21699 -1.93035,5.46643 -0.0355,10e-4 -0.0735,0.009 -0.11046,0.0145 h -1.50562 v 5.8671 h 105.70099 v -4.20967 -1.63936 -0.0181 h -0.61235 c 0.27355,-0.30476 0.48372,-0.6649 0.61235,-1.09256 v -2.38339 c -0.36514,-1.27285 -1.32789,-2.40604 -2.67402,-2.5951 -0.1409,-0.0198 -0.28321,-0.028 -0.42527,-0.0243 v 5.2e-4 c -0.99434,0.0265 -1.95248,0.62448 -1.96735,1.71939 0.0207,0.82595 1.21969,1.45632 1.55565,0.72648 -1.5651,0.23467 -1.18516,-1.87718 0.16051,-1.83195 3.04473,0.1072 1.34705,5.21699 -1.93035,5.46643 -0.0355,0.001 -0.0734,0.009 -0.11048,0.0145 h -0.71919 c 0.4381,-0.48819 0.71329,-1.11873 0.7515,-1.94089 0.20749,-1.75777 -0.93183,-3.86587 -2.8137,-4.13016 -0.14089,-0.0198 -0.28373,-0.028 -0.42577,-0.0243 v 5.2e-4 c -0.99436,0.0265 -1.9525,0.62448 -1.96735,1.71939 0.0207,0.82595 1.22021,1.45632 1.55615,0.72648 -1.56509,0.23467 -1.18514,-1.87718 0.16052,-1.83195 3.04475,0.1072 1.34654,5.21699 -1.93086,5.46643 -0.0356,0.001 -0.0734,0.009 -0.11049,0.0145 h -0.66082 c 0.4381,-0.48819 0.71328,-1.11873 0.7515,-1.94089 0.20746,-1.75777 -0.9313,-3.86587 -2.81318,-4.13016 -0.14088,-0.0198 -0.28374,-0.028 -0.42577,-0.0243 v 5.2e-4 c -0.99436,0.0265 -1.95198,0.62448 -1.96683,1.71939 0.0207,0.82595 1.21916,1.45632 1.55511,0.72648 -1.56509,0.23467 -1.18515,-1.87718 0.16051,-1.83195 3.04476,0.1072 1.34708,5.21699 -1.93034,5.46643 -0.0355,0.001 -0.0734,0.009 -0.11048,0.0145 h -0.71919 c 0.43815,-0.48819 0.7138,-1.11873 0.75202,-1.94089 0.20748,-1.75777 -0.93183,-3.86587 -2.8137,-4.13016 -0.14089,-0.0198 -0.28373,-0.028 -0.42578,-0.0243 v 5.2e-4 c -0.99433,0.0265 -1.95248,0.62448 -1.96734,1.71939 0.0207,0.82595 1.21915,1.45632 1.55511,0.72648 -1.56511,0.23467 -1.18464,-1.87718 0.16104,-1.83195 3.04473,0.1072 1.34707,5.21699 -1.93035,5.46643 -0.0355,0.001 -0.0734,0.009 -0.11048,0.0145 h -0.71867 c 0.43796,-0.48815 0.71278,-1.11889 0.75098,-1.94089 0.20749,-1.75777 -0.93181,-3.86587 -2.8137,-4.13016 -0.14087,-0.0198 -0.28373,-0.028 -0.42578,-0.0243 v 5.2e-4 c -0.99436,0.0265 -1.95195,0.62448 -1.96682,1.71939 0.0207,0.82595 1.21966,1.45632 1.55563,0.72648 -1.5651,0.23467 -1.18463,-1.87718 0.16104,-1.83195 3.04473,0.1072 1.34653,5.21699 -1.93086,5.46643 -0.0356,10e-4 -0.0734,0.009 -0.11049,0.0145 h -0.7192 c 0.43811,-0.48819 0.71329,-1.11873 0.75152,-1.94089 0.20748,-1.75777 -0.93184,-3.86587 -2.81371,-4.13016 -0.14088,-0.0198 -0.28372,-0.028 -0.42578,-0.0243 v 5.2e-4 c -0.99434,0.0265 -1.95247,0.62448 -1.96733,1.71939 0.0207,0.82595 1.21965,1.45632 1.55561,0.72648 -1.56508,0.23467 -1.18462,-1.87718 0.16106,-1.83195 3.04474,0.1072 1.34653,5.21699 -1.93089,5.46643 -0.0355,10e-4 -0.0734,0.009 -0.11046,0.0145 h -0.71919 c 0.43808,-0.48819 0.71326,-1.11873 0.7515,-1.94089 0.20746,-1.75777 -0.93182,-3.86587 -2.81372,-4.13016 -0.14088,-0.0198 -0.28318,-0.028 -0.42524,-0.0243 v 5.2e-4 c -0.99437,0.0265 -1.95248,0.62448 -1.96737,1.71939 0.0207,0.82595 1.21968,1.45632 1.55565,0.72648 -1.56512,0.23467 -1.18461,-1.87718 0.16103,-1.83195 3.04477,0.1072 1.34655,5.21699 -1.93086,5.46643 -0.0355,10e-4 -0.0734,0.009 -0.11049,0.0145 h -0.66081 c 0.43822,-0.48821 0.7138,-1.11864 0.75201,-1.94089 0.20748,-1.75777 -0.93236,-3.86587 -2.8142,-4.13016 -0.14089,-0.0198 -0.28321,-0.028 -0.42527,-0.0243 v 5.2e-4 c -0.99435,0.0265 -1.9525,0.62448 -1.96734,1.71939 0.0207,0.82595 1.21968,1.45632 1.55562,0.72648 -1.56507,0.23467 -1.18461,-1.87718 0.16106,-1.83195 3.04474,0.1072 1.34653,5.21699 -1.93089,5.46643 -0.0355,10e-4 -0.0733,0.009 -0.11046,0.0145 h -0.71919 c 0.43813,-0.48819 0.71327,-1.11873 0.7515,-1.94089 0.20749,-1.75777 -0.93186,-3.86587 -2.81372,-4.13016 -0.14088,-0.0198 -0.28372,-0.028 -0.42578,-0.0243 v 5.2e-4 c -0.99434,0.0265 -1.95247,0.62448 -1.96733,1.71939 0.0207,0.82595 1.22021,1.45632 1.55615,0.72648 -1.56509,0.23467 -1.18516,-1.87718 0.16052,-1.83195 3.04473,0.1072 1.34653,5.21699 -1.93086,5.46643 -0.0356,10e-4 -0.0734,0.009 -0.1105,0.0145 h -0.77702 c 0.43797,-0.48815 0.71274,-1.11889 0.75096,-1.94089 0.20749,-1.75777 -0.93129,-3.86587 -2.81316,-4.13016 -0.14089,-0.0198 -0.28426,-0.028 -0.42631,-0.0243 v 5.2e-4 c -0.99434,0.0265 -1.9525,0.62448 -1.96734,1.71939 0.0207,0.82595 1.21966,1.45632 1.55565,0.72648 -1.56514,0.23467 -1.18465,-1.87718 0.16103,-1.83195 3.04471,0.1072 1.34706,5.21699 -1.93036,5.46643 -0.0354,0.001 -0.0734,0.009 -0.11049,0.0145 h -0.71969 c 0.43808,-0.48819 0.71326,-1.11873 0.7515,-1.94089 0.20746,-1.75777 -0.93131,-3.86587 -2.81319,-4.13016 -0.14088,-0.0198 -0.28374,-0.028 -0.42577,-0.0243 v 5.2e-4 c -0.99435,0.0265 -1.952,0.62448 -1.96683,1.71939 0.0207,0.82595 1.21914,1.45632 1.5551,0.72648 -1.56509,0.23467 -1.18464,-1.87718 0.16104,-1.83195 3.04474,0.1072 1.34706,5.21699 -1.93033,5.46643 -0.0356,0.001 -0.0734,0.009 -0.11049,0.0145 h -0.71972 c 0.43811,-0.48819 0.71328,-1.11873 0.7515,-1.94089 0.20749,-1.75777 -0.93129,-3.86587 -2.81316,-4.13016 -0.14092,-0.0198 -0.28375,-0.028 -0.42578,-0.0243 v 5.2e-4 c -0.99434,0.0265 -1.95249,0.62448 -1.96737,1.71939 0.0208,0.82595 1.21915,1.45632 1.55515,0.72648 -1.56512,0.23467 -1.18465,-1.87718 0.16103,-1.83195 3.0447,0.1072 1.34706,5.21699 -1.93036,5.46643 -0.0354,0.001 -0.0734,0.009 -0.11049,0.0145 h -0.6608 c 0.43808,-0.48819 0.71325,-1.11873 0.7515,-1.94089 0.20746,-1.75777 -0.93132,-3.86587 -2.81319,-4.13016 -0.14091,-0.0198 -0.28426,-0.028 -0.42632,-0.0243 v 5.2e-4 c -0.99433,0.0265 -1.95193,0.62448 -1.96679,1.71939 0.0207,0.82595 1.21914,1.45632 1.55511,0.72648 -1.56509,0.23467 -1.18465,-1.87718 0.16103,-1.83195 3.04473,0.1072 1.34706,5.21699 -1.93036,5.46643 -0.0354,0.001 -0.0739,0.009 -0.111,0.0145 h -0.71918 c 0.43821,-0.48821 0.7138,-1.11864 0.75203,-1.94089 0.20746,-1.75777 -0.93182,-3.86587 -2.81372,-4.13016 -0.14086,-0.0198 -0.28318,-0.028 -0.42524,-0.0243 v 5.2e-4 c -0.99435,0.0265 -1.95301,0.62448 -1.96787,1.71939 0.0208,0.82595 1.21965,1.45632 1.55564,0.72648 -1.56514,0.23467 -1.18464,-1.87718 0.16103,-1.83195 3.04472,0.1072 1.34706,5.21699 -1.93035,5.46643 -0.0355,10e-4 -0.0734,0.009 -0.11049,0.0145 h -0.71918 c 0.43797,-0.48815 0.71277,-1.11889 0.75099,-1.94089 0.20748,-1.75777 -0.9313,-3.86587 -2.81319,-4.13016 -0.14091,-0.0198 -0.28375,-0.028 -0.42578,-0.0243 v 5.2e-4 c -0.99436,0.0265 -1.95247,0.62448 -1.96734,1.71939 0.0207,0.82595 1.21966,1.45632 1.55562,0.72648 -1.56508,0.23467 -1.18515,-1.87718 0.16053,-1.83195 3.04473,0.1072 1.34709,5.21699 -1.93036,5.46643 -0.0354,10e-4 -0.0734,0.009 -0.11046,0.0145 h -0.71973 c 0.43822,-0.48821 0.71434,-1.11864 0.75255,-1.94089 0.20748,-1.75777 -0.93182,-3.86587 -2.8137,-4.13016 -0.14088,-0.0198 -0.28371,-0.028 -0.42577,-0.0243 v 5.2e-4 c -0.99437,0.0265 -1.9525,0.62448 -1.96737,1.71939 0.0207,0.82595 1.21917,1.45632 1.55514,0.72648 -1.56512,0.23467 -1.18467,-1.87718 0.16103,-1.83195 3.04474,0.1072 1.34706,5.21699 -1.93035,5.46643 -0.0355,10e-4 -0.0735,0.009 -0.11049,0.015 h -0.71919 c 0.43811,-0.48819 0.71329,-1.11874 0.7515,-1.9409 0.20749,-1.75777 -0.93183,-3.86586 -2.81369,-4.13015 -0.14089,-0.0198 -0.28373,-0.0285 -0.42578,-0.0248 z"
         style="fill:#000080;fill-opacity:1;stroke:none;stroke-width:0.05107307;stroke-miterlimit:4;stroke-dasharray:none;stroke-opacity:1" />
      <rect
         y="133.01414"
         x="-340.93024"
         height="158.61761"
         width="105.701"
         id="rect920"
         style="opacity:0;fill:none;fill-opacity:1;stroke:none;stroke-width:0.26472381;stroke-miterlimit:4;stroke-dasharray:none;stroke-opacity:1" />
    </g>
    <path
       inkscape:connector-curvature="0"
       id="path932"
       d="m -409.34847,161.38574 v 0.001 c -0.98313,0.0265 -1.92995,0.62396 -1.94466,1.71887 0.0205,0.82595 1.20593,1.45632 1.53811,0.72648 -1.54747,0.23467 -1.17181,-1.87718 0.15871,-1.83195 3.01041,0.1072 4.99429,1.51334 1.75382,1.76277 -0.0352,0.001 -0.0726,0.009 -0.10925,0.0145 h -0.65387 c 0.43316,-0.48819 -2.95716,0.46876 -2.91938,-0.3534 0.20514,-1.75777 -0.92083,-1.74919 -2.78148,-2.01348 -0.13929,-0.0198 -0.27999,-0.028 -0.42045,-0.0243 v 5.2e-4 c -0.98312,0.0265 -1.93048,0.62448 -1.94517,1.71939 0.0205,0.82595 1.20541,1.45632 1.5376,0.72648 -1.54748,0.23467 -1.17132,-1.87718 0.15921,-1.83195 3.0104,0.1072 4.99428,1.51282 1.75381,1.76225 -0.035,0.001 -0.0726,0.009 -0.10924,0.0145 h -0.71158 c 0.43314,-0.48819 -2.95719,0.46876 -2.91938,-0.3534 0.20512,-1.75777 -0.92081,-1.74919 -2.78147,-2.01348 -0.13932,-0.0198 -0.28051,-0.028 -0.42097,-0.0243 -0.98314,0.0265 1.73191,-0.96302 1.71725,0.13189 0.0205,0.82595 -2.45702,3.04382 -2.12483,2.31398 -1.54748,0.23467 -1.17129,-1.87718 0.15921,-1.83195 3.01041,0.1072 4.99426,1.51282 1.75382,1.76226 -0.0351,0.001 -0.0727,0.009 -0.10921,0.0145 h -1.48865 v 5.8671 h 104.50928 v -4.20967 -1.63936 -0.0181 h -0.60544 c 0.27046,-0.30476 -3.18414,0.9226 -3.05696,0.49494 v -0.26672 c -0.36103,-1.27285 -1.31292,-2.40604 -2.64388,-2.5951 -0.13931,-0.0198 -0.28001,-0.028 -0.42047,-0.0243 v 5.2e-4 c -0.98313,0.0265 -1.93047,0.62448 -1.94517,1.71939 0.0205,0.82595 1.20594,1.45632 1.53811,0.72648 -1.54745,0.23467 -1.1718,-1.87718 0.1587,-1.83195 3.0104,0.1072 4.99427,1.51282 1.75382,1.76226 -0.0351,0.001 -0.0726,0.009 -0.10923,0.0145 h -0.71108 c 0.43316,-0.48819 -2.95716,0.46877 -2.91938,-0.35339 0.20515,-1.75777 -0.92133,-1.7492 -2.78198,-2.01349 -0.1393,-0.0198 -0.28053,-0.028 -0.42097,-0.0243 v 5.2e-4 c -0.98315,0.0265 -1.93049,0.62448 -1.94517,1.71939 0.0205,0.82595 1.20645,1.45632 1.5386,0.72648 -1.54744,0.23467 -1.17177,-1.87718 0.15871,-1.83195 3.01043,0.1072 4.99377,1.51282 1.75332,1.76226 -0.0352,0.001 -0.0726,0.009 -0.10924,0.0145 h -0.65337 c 0.43316,-0.48819 -2.95717,0.46877 -2.91938,-0.35339 0.20512,-1.75777 -0.9208,-1.7492 -2.78147,-2.01349 -0.13929,-0.0198 -0.28054,-0.028 -0.42097,-0.0243 v 5.2e-4 c -0.98315,0.0265 -1.92997,0.62448 -1.94465,1.71939 0.0205,0.82595 1.20541,1.45632 1.53758,0.72648 -1.54745,0.23467 -1.17179,-1.87718 0.1587,-1.83195 3.01043,0.1072 4.9943,1.51282 1.75383,1.76226 -0.0351,0.001 -0.0726,0.009 -0.10924,0.0145 h -0.71108 c 0.43321,-0.48819 -2.95665,0.46877 -2.91887,-0.35339 0.20515,-1.75777 -0.92132,-1.7492 -2.78197,-2.01349 -0.1393,-0.0198 -0.28053,-0.028 -0.42098,-0.0243 v 5.2e-4 c -0.98312,0.0265 -1.93047,0.62448 -1.94516,1.71939 0.0205,0.82595 1.2054,1.45632 1.53758,0.72648 -1.54747,0.23467 -1.17129,-1.87718 0.15922,-1.83195 3.0104,0.1072 4.99429,1.51282 1.75382,1.76226 -0.0351,0.001 -0.0726,0.009 -0.10923,0.0145 h -0.71057 c 0.43302,-0.48815 -2.95766,0.46861 -2.9199,-0.35339 0.20516,-1.75777 -0.9213,-1.7492 -2.78197,-2.01349 -0.13928,-0.0198 -0.28053,-0.028 -0.42098,-0.0243 v 5.2e-4 c -0.98315,0.0265 -1.92995,0.62448 -1.94465,1.71939 0.0205,0.82595 1.20591,1.45632 1.53809,0.72648 -1.54745,0.23467 -1.17127,-1.87718 0.15923,-1.83195 3.0104,0.1072 4.99375,1.51282 1.75331,1.76226 -0.0352,10e-4 -0.0726,0.009 -0.10924,0.0145 h -0.71109 c 0.43317,-0.48819 -2.95716,0.46877 -2.91936,-0.35339 0.20514,-1.75777 -0.92134,-1.7492 -2.78199,-2.01349 -0.13929,-0.0198 -0.28052,-0.028 -0.42098,-0.0243 v 5.2e-4 c -0.98313,0.0265 -1.93046,0.62448 -1.94515,1.71939 0.0205,0.82595 1.2059,1.45632 1.53807,0.72648 -1.54743,0.23467 -1.17126,-1.87718 0.15925,-1.83195 3.01041,0.1072 4.99375,1.51282 1.75328,1.76226 -0.0351,0.001 -0.0726,0.009 -0.10921,0.0145 h -0.71108 c 0.43314,-0.48819 -2.95719,0.46877 -2.91938,-0.35339 0.20512,-1.75777 -0.92132,-1.7492 -2.782,-2.01349 -0.13929,-0.0198 -0.27999,-0.028 -0.42044,-0.0243 v 5.2e-4 c -0.98316,0.0265 -1.93047,0.62448 -1.94519,1.71939 0.0205,0.82595 1.20592,1.45632 1.53811,0.72648 -1.54748,0.23467 -1.17126,-1.87718 0.15921,-1.83195 3.01044,0.1072 4.99378,1.51282 1.75332,1.76226 -0.0351,0.001 -0.0726,0.009 -0.10925,0.0145 h -0.65336 c 0.43328,-0.48821 -2.95665,0.46886 -2.91887,-0.35339 0.20514,-1.75777 -0.92185,-1.7492 -2.78247,-2.01349 -0.13931,-0.0198 -0.28002,-0.028 -0.42048,-0.0243 v 5.2e-4 c -0.98314,0.0265 -1.93049,0.62448 -1.94516,1.71939 0.0205,0.82595 1.20593,1.45632 1.53808,0.72648 -1.54742,0.23467 -1.17125,-1.87718 0.15925,-1.83195 3.01041,0.1072 4.99375,1.51282 1.75328,1.76226 -0.0351,0.001 -0.0725,0.009 -0.10921,0.0145 h -0.71108 c 0.43319,-0.48819 -2.95718,0.46877 -2.91938,-0.35339 0.20515,-1.75777 -0.92136,-1.7492 -2.782,-2.01349 -0.13929,-0.0198 -0.28052,-0.028 -0.42098,-0.0243 v 5.2e-4 c -0.98313,0.0265 -1.93046,0.62448 -1.94515,1.71939 0.0205,0.82595 1.20645,1.45632 1.53861,0.72648 -1.54745,0.23467 -1.1718,-1.87718 0.15871,-1.83195 3.0104,0.1072 4.99375,1.51282 1.75331,1.76226 -0.0352,10e-4 -0.0726,0.009 -0.10925,0.0145 h -0.76826 c 0.43303,-0.48815 -2.9577,0.46861 -2.91991,-0.35339 0.20515,-1.75777 -0.92079,-1.7492 -2.78145,-2.01349 -0.1393,-0.0198 -0.28105,-0.028 -0.4215,-0.0243 v 5.2e-4 c -0.98313,0.0265 -1.93049,0.62448 -1.94516,1.71939 0.0205,0.82595 1.20591,1.45632 1.53811,0.72648 -1.54749,0.23467 -1.17129,-1.87718 0.15921,-1.83195 3.01039,0.1072 4.99429,1.51282 1.75382,1.76226 -0.035,0.001 -0.0726,0.009 -0.10925,0.0145 h -0.71157 c 0.43314,-0.48819 -2.95719,0.46877 -2.91939,-0.35339 0.20513,-1.75777 -0.92081,-1.7492 -2.78147,-2.01349 -0.13929,-0.0198 -0.28054,-0.028 -0.42097,-0.0243 v 5.2e-4 c -0.98314,0.0265 -1.92999,0.62448 -1.94465,1.71939 0.0205,0.82595 1.20539,1.45632 1.53756,0.72648 -1.54744,0.23467 -1.17128,-1.87718 0.15923,-1.83195 3.01041,0.1072 4.99428,1.51282 1.75384,1.76226 -0.0352,0.001 -0.0726,0.009 -0.10924,0.0145 h -0.71161 c 0.43317,-0.48819 -2.95717,0.46877 -2.91938,-0.35339 0.20515,-1.75777 -0.92079,-1.7492 -2.78144,-2.01349 -0.13934,-0.0198 -0.28056,-0.028 -0.42098,-0.0243 v 5.2e-4 c -0.98313,0.0265 -1.93048,0.62448 -1.94519,1.71939 0.0206,0.82595 1.2054,1.45632 1.53761,0.72648 -1.54747,0.23467 -1.17129,-1.87718 0.15922,-1.83195 3.01037,0.1072 4.99428,1.51282 1.75381,1.76226 -0.035,0.001 -0.0726,0.009 -0.10924,0.0145 h -0.65335 c 0.43314,-0.48819 -2.9572,0.46877 -2.91939,-0.35339 0.20513,-1.75777 -0.92082,-1.7492 -2.78147,-2.01349 -0.13932,-0.0198 -0.28105,-0.028 -0.42151,-0.0243 v 5.2e-4 c -0.98312,0.0265 -1.92993,0.62448 -1.94462,1.71939 0.0205,0.82595 1.2054,1.45632 1.53758,0.72648 -1.54745,0.23467 -1.17129,-1.87718 0.15921,-1.83195 3.01041,0.1072 4.99428,1.51282 1.75382,1.76226 -0.035,0.001 -0.0731,0.009 -0.10975,0.0145 h -0.71108 c 0.43327,-0.48821 -2.95665,0.46886 -2.91885,-0.35339 0.20512,-1.75777 -0.92132,-1.7492 -2.782,-2.01349 -0.13927,-0.0198 -0.27999,-0.028 -0.42044,-0.0243 v 5.2e-4 c -0.98314,0.0265 -1.931,0.62448 -1.94569,1.71939 0.0206,0.82595 1.2059,1.45632 1.5381,0.72648 -1.54749,0.23467 -1.17128,-1.87718 0.15922,-1.83195 3.01039,0.1072 4.99428,1.51282 1.75382,1.76226 -0.0351,10e-4 -0.0726,0.009 -0.10925,0.0145 h -0.71107 c 0.43304,-0.48815 -2.95767,0.46861 -2.91988,-0.35339 0.20514,-1.75777 -0.9208,-1.7492 -2.78148,-2.01349 -0.13932,-0.0198 -0.28055,-0.028 -0.42097,-0.0243 v 5.2e-4 c -0.98315,0.0265 -1.93046,0.62448 -1.94516,1.71939 0.0205,0.82595 1.2059,1.45632 1.53808,0.72648 -1.54744,0.23467 -1.17179,-1.87718 0.15872,-1.83195 3.0104,0.1072 4.99431,1.51282 1.75381,1.76226 -0.035,0.001 -0.0726,0.009 -0.10922,0.0145 h -0.71161 c 0.43328,-0.48821 -2.95612,0.46886 -2.91834,-0.35339 0.20514,-1.75777 -0.92132,-1.7492 -2.78198,-2.01349 -0.13929,-0.0198 -0.28051,-0.028 -0.42097,-0.0243 v 5.2e-4 c -0.98316,0.0265 -1.93049,0.62448 -1.94519,1.71939 0.0205,0.82595 1.20542,1.45632 1.53761,0.72648 -1.54748,0.23467 -1.17132,-1.87718 0.15921,-1.83195 3.01041,0.1072 4.99428,1.51282 1.75382,1.76226 -0.0351,0.001 -0.0727,0.009 -0.10924,0.015 h -0.71108 c 0.43317,-0.48819 -2.95716,0.46876 -2.91938,-0.3534 0.20515,-1.75777 -0.92133,-1.74919 -2.78197,-2.01348 -0.1393,-0.0198 -0.28053,-0.0285 -0.42098,-0.0248 z"
       style="fill:#000080;fill-opacity:1;stroke:none;stroke-width:0.05078435;stroke-miterlimit:4;stroke-dasharray:none;stroke-opacity:1"
       sodipodi:nodetypes="cccccccccccccccccccccccccccccccccccccccccccccccccccccccccccccccccccccccccccccccccccccccccccccccccccccccccccccccccccccccccccccccccccccccccccccccccccccccccccccccccccccccccccccccccccccccccccccccccccccc" />
    <path
       style="fill:none;stroke:#000000;stroke-width:0.26458332px;stroke-linecap:butt;stroke-linejoin:miter;stroke-opacity:1"
       d="m -418.76786,163.77692 16.2528,7.9e-4"
       id="path3638"
       inkscape:connector-curvature="0" />
    <path
       style="fill:none;stroke:#000000;stroke-width:0.26458332px;stroke-linecap:butt;stroke-linejoin:miter;stroke-opacity:1"
       d="m -387.60127,161.38595 23.14398,2.39112"
       id="path3640"
       inkscape:connector-curvature="0" />
    <path
       style="fill:none;stroke:#000000;stroke-width:0.26458332px;stroke-linecap:butt;stroke-linejoin:miter;stroke-opacity:1"
       d="m -338.72683,161.38577 c 0.26107,0.30406 0.47488,0.65616 0.78319,0.91219 0.22718,0.18866 0.49708,0.39619 0.79238,0.39619 0.0747,0 2.18421,-0.89089 2.37709,-0.39619 0.16376,0.42001 -0.49979,0.7504 -0.74969,1.1256"
       id="path3642"
       inkscape:connector-curvature="0" />
    <path
       style="opacity:1;fill:#000080;fill-opacity:1;stroke:none;stroke-width:0.23901056;stroke-miterlimit:4;stroke-dasharray:none;stroke-opacity:1"
       d="m -440.2534,77.526909 c -1.39544,-0.118416 1.27686,2.923435 -3.94838,4.430698 0.23131,-0.006 0.47152,-0.003 0.71539,0.004 h -0.71091 v 7.909777 h 105.77493 v -7.79077 c 0.0183,-0.04671 0.0374,-0.09282 0.0539,-0.14146 -0.40852,-0.603316 -3.24639,1.238086 -10.56478,-2.540943 -8.76268,-4.524817 -1.19007,0.283842 -7.81142,2.443035 -1.45297,0.09522 -4.33562,0.17178 -9.3994,-2.443035 -8.72675,-4.506263 -1.251,0.244751 -7.7297,2.416543 -1.26118,0.07367 -4.23193,0.489742 -9.86016,-2.416543 -8.7626,-4.524777 -1.19039,0.283822 -7.81144,2.443035 -1.45297,0.09522 -4.33561,0.17178 -9.3994,-2.443035 -8.71712,-4.501292 -1.26688,0.234287 -7.70769,2.409357 -1.03934,-0.02356 -4.01718,0.765975 -10.16643,-2.409357 -8.7627,-4.524817 -1.19009,0.283842 -7.81144,2.443035 -1.45297,0.09522 -4.33562,0.17178 -9.3994,-2.443035 -2.50877,-1.295469 -3.67761,-1.825455 -4.22366,-1.871793 z"
       id="rect3646"
       inkscape:connector-curvature="0" />
  </g>
</svg>
